<?xml version="1.0" encoding="utf-8"?>
<!-- Generator: Adobe Illustrator 27.1.0, SVG Export Plug-In . SVG Version: 6.00 Build 0)  -->
<svg version="1.1" id="Capa_1" xmlns="http://www.w3.org/2000/svg" xmlns:xlink="http://www.w3.org/1999/xlink" x="0px" y="0px"
	 viewBox="0 0 283.46 283.46" style="enable-background:new 0 0 283.46 283.46;" xml:space="preserve">
<style type="text/css">
	.st0{fill:#1A1A38;}
	.st1{fill:#EFCD08;}
</style>
<rect x="0" y="0" class="st0" width="283.46" height="283.46"/>
<path class="st1" d="M134.88,111.88l23.86,7c1.11,0.6,1.11,2.19,0,2.8l-23.86,7c-0.27,0.15-0.49,0.37-0.63,0.63l-8.48,25.34
	c-0.6,1.11-2.19,1.11-2.8,0l-8.48-24.6c-0.15-0.27-0.37-0.49-0.63-0.63L90,121.68c-1.11-0.6-1.11-2.19,0-2.8l23.86-7
	c0.27-0.15,0.49-0.37,0.63-0.63l8.48-25.34c0.6-1.11,2.19-1.11,2.8,0l8.48,25.34C134.39,111.52,134.61,111.74,134.88,111.88z"/>
</svg>
