<?xml version="1.0" encoding="utf-8"?>
<!-- Generator: Adobe Illustrator 27.1.0, SVG Export Plug-In . SVG Version: 6.00 Build 0)  -->
<svg version="1.1" id="Capa_1" xmlns="http://www.w3.org/2000/svg" xmlns:xlink="http://www.w3.org/1999/xlink" x="0px" y="0px"
	 viewBox="0 0 283.46 283.46" style="enable-background:new 0 0 283.46 283.46;" xml:space="preserve">
<style type="text/css">
	.st0{fill:#FFFFFF;}
</style>
<path class="st0" d="M147.28,64.11l21.45,43.46c0.9,1.83,2.64,3.09,4.66,3.39l47.96,6.97c5.08,0.74,7.1,6.98,3.43,10.56l-34.7,33.83
	c-1.46,1.42-2.12,3.47-1.78,5.48l8.19,47.77c0.87,5.06-4.44,8.91-8.98,6.52l-42.9-22.55c-1.8-0.95-3.96-0.95-5.76,0l-42.9,22.55
	c-4.54,2.39-9.85-1.47-8.98-6.52l8.19-47.77c0.34-2.01-0.32-4.06-1.78-5.48l-34.7-33.83c-3.67-3.58-1.65-9.82,3.43-10.56l47.96-6.97
	c2.02-0.29,3.76-1.56,4.66-3.39l21.45-43.46C138.45,59.51,145.01,59.51,147.28,64.11z"/>
</svg>
