<?xml version="1.0" encoding="utf-8"?>
<!-- Generator: Adobe Illustrator 27.1.0, SVG Export Plug-In . SVG Version: 6.00 Build 0)  -->
<svg version="1.1" xmlns="http://www.w3.org/2000/svg" xmlns:xlink="http://www.w3.org/1999/xlink" x="0px" y="0px"
	 viewBox="0 0 283.46 283.46" style="enable-background:new 0 0 283.46 283.46;" xml:space="preserve">
<style type="text/css">
	.st0{fill:#FFFFFF;}
</style>
<g id="Capa_1">
	<path class="st0" d="M283.47,93.51l-7.12-8.33c-3.11-3.64-9.05-2.13-10.05,2.55l-5.94,27.91c-0.4,1.86-1.68,3.41-3.44,4.14
		l-26.35,10.93c-4.43,1.84-4.83,7.95-0.68,10.35l24.71,14.27c1.65,0.95,2.72,2.65,2.87,4.55l2.25,28.44
		c0.38,4.78,6.07,7.05,9.63,3.84l14.12-12.71V93.51z"/>
	<path class="st0" d="M50.79,114.65c2.5-4.09-0.77-9.27-5.53-8.77l-28.38,2.98c-1.89,0.2-3.76-0.55-5-1.99L0,92.96v86.91l7.56-6.8
		c1.41-1.27,3.36-1.77,5.21-1.33l27.75,6.65c4.66,1.12,8.58-3.59,6.63-7.97l-11.6-26.07c-0.77-1.74-0.64-3.75,0.35-5.37
		L50.79,114.65z"/>
	<path class="st0" d="M179.45,9.2c-0.77-1.74-0.64-3.75,0.35-5.37l2.33-3.81H87.98c-0.33,2.2,0.57,4.59,2.81,5.88l24.71,14.27
		c1.65,0.95,2.72,2.65,2.87,4.55l2.25,28.44c0.38,4.78,6.07,7.05,9.63,3.84l21.21-19.09c1.41-1.27,3.36-1.77,5.21-1.33l27.75,6.65
		c4.66,1.12,8.58-3.59,6.63-7.97L179.45,9.2z"/>
	<path class="st0" d="M181.35,283.47l13.35-21.8c2.5-4.09-0.77-9.27-5.53-8.77l-28.38,2.98c-1.89,0.2-3.76-0.55-5-1.99l-18.54-21.69
		c-3.11-3.64-9.05-2.13-10.05,2.55l-5.94,27.91c-0.4,1.86-1.68,3.41-3.44,4.14l-26.35,10.93c-2.49,1.03-3.71,3.42-3.55,5.74H181.35z
		"/>
</g>
<g id="Capa_2">
</g>
</svg>
